<svg width="24" height="24" viewBox="0 0 24 24" fill="none" xmlns="http://www.w3.org/2000/svg">
    <path d="M10 8V21C10 21.5523 10.4477 22 11 22V22C11.5523 22 12 21.5523 12 21V8" stroke="var(--accent-color)"
          fill="none" stroke-width="2" stroke-linecap="round"/>
    <path d="M3 7V4C3 3.44772 3.44772 3 4 3H4.83772C4.9452 3 5.05198 3.01733 5.15395 3.05132L7.44868 3.81623C7.71991 3.90664 8 3.70476 8 3.41886C8 3.18753 8.18753 3 8.41886 3H13C15.2172 3 17.5479 3.71886 19.3368 5.58127C19.9987 6.2704 19.1877 7.1702 18.2822 6.86501C16.8905 6.39596 15.749 6.18125 14.9956 6.08297C14.4479 6.01153 14 6.44772 14 7C14 7.55228 13.5523 8 13 8H8.41886C8.18753 8 8 7.81247 8 7.58114C8 7.29524 7.71991 7.09336 7.44868 7.18377L5.15395 7.94868C5.05198 7.98267 4.9452 8 4.83772 8H4C3.44772 8 3 7.55228 3 7Z"
          fill="none" stroke-width="2"/>
</svg>
