<svg width="24" height="24" viewBox="0 0 24 24" fill="none" xmlns="http://www.w3.org/2000/svg">
    <path d="M11 14V20C11 20.5523 11.4477 21 12 21V21C12.5523 21 13 20.5523 13 20V14M11 6V4C11 3.44772 11.4477 3 12 3V3C12.5523 3 13 3.44772 13 4V6"
          stroke="var(--accent-color)" stroke-width="2" stroke-linecap="round"/>
    <path d="M4 12V8C4 6.89543 4.89543 6 6 6H17.1716C17.702 6 18.2107 6.21071 18.5858 6.58579L20.5858 8.58579C21.3668 9.36683 21.3668 10.6332 20.5858 11.4142L18.5858 13.4142C18.2107 13.7893 17.702 14 17.1716 14H6C4.89543 14 4 13.1046 4 12Z"
          fill="none" stroke-width="2" stroke-linecap="round"/>
</svg>
