<svg width="24" height="24" viewBox="0 0 24 24" fill="none" xmlns="http://www.w3.org/2000/svg">
    <path d="M2.62791 15.3605L5.49005 13.357C5.80224 13.1384 6.21151 13.1163 6.54543 13.3L18 19.6L14.2375 21.8575C14.0821 21.9507 13.9043 22 13.723 22H12.3284C11.798 22 11.2893 21.7893 10.9142 21.4142L10.5858 21.0858C10.2107 20.7107 9.70201 20.5 9.17157 20.5H7.85407C7.03626 20.5 6.30084 20.0021 5.99711 19.2428L5.8445 18.8613C5.62601 18.315 5.17811 17.8927 4.62 17.7067L2.88514 17.1284C2.10564 16.8685 1.95478 15.8317 2.62791 15.3605Z"
          fill="#30C0F8"/>
    <path d="M19 18V18.4338C19 18.7851 18.8157 19.1106 18.5145 19.2913L18 19.6M18 19.6L14.2375 21.8575C14.0821 21.9507 13.9043 22 13.723 22H12.3284C11.798 22 11.2893 21.7893 10.9142 21.4142L10.5858 21.0858C10.2107 20.7107 9.70201 20.5 9.17157 20.5H7.85407C7.03626 20.5 6.30084 20.0021 5.99711 19.2428L5.8445 18.8613C5.62601 18.315 5.17811 17.8927 4.62 17.7067L2.88514 17.1284C2.10564 16.8685 1.95478 15.8317 2.62791 15.3605L5.49005 13.357C5.80224 13.1384 6.21151 13.1163 6.54543 13.3L18 19.6Z"
          stroke="var(--accent-color)" fill="var(--accent-color)" stroke-width="2" stroke-linecap="round"/>
    <path d="M6 10V12.4027C6 12.7706 6.20199 13.1088 6.5259 13.2832L17.5259 19.2063C18.1921 19.565 19 19.0825 19 18.3258V16"
          fill="none" stroke-width="2" stroke-linecap="round"/>
    <path d="M20.9117 11.4417L20.1961 15.0194C20.0821 15.5896 19.5815 16 19 16C18.4185 16 17.9179 15.5896 17.8039 15.0194L17.0883 11.4417C17.037 11.1849 16.8115 11 16.5495 11C16.246 11 16 10.754 16 10.4505V10C16 9.44772 16.4477 9 17 9H21C21.5523 9 22 9.44772 22 10V10.4505C22 10.754 21.754 11 21.4505 11C21.1885 11 20.963 11.1849 20.9117 11.4417Z"
          fill="none" stroke-width="2" stroke-linecap="round"/>
    <path d="M4 2H8.49576C8.82674 2 9.15255 2.08214 9.44396 2.23906L21.4741 8.71682C21.798 8.89124 22 9.22941 22 9.59729V10.4505C22 10.754 21.754 11 21.4505 11C21.1885 11 20.963 11.1849 20.9117 11.4417L20.1608 15.1961C20.0673 15.6635 19.6569 16 19.1802 16H18.2521C18.0866 16 17.9237 15.9589 17.778 15.8805L5.82844 9.44608C5.30373 9.16355 4.93235 8.66174 4.81547 8.07737L4.08835 4.44174C4.03698 4.18489 3.81145 4 3.54951 4C3.24602 4 3 3.75398 3 3.45049V3C3 2.44772 3.44772 2 4 2Z"
          fill="none" stroke-width="2" stroke-linecap="round"/>
</svg>
