<svg width="24" height="24" viewBox="0 0 24 24" fill="none" xmlns="http://www.w3.org/2000/svg">
    <path d="M19 6C22 3 19 4.5 22 1.5" stroke="var(--accent-color)" stroke-width="2" stroke-linecap="round"/>
    <path d="M3 22L5 20" fill="none" stroke-width="2" stroke-linecap="round"/>
    <path d="M10 13L4.70711 18.2929C4.31658 18.6834 4.31658 19.3166 4.70711 19.7071L5.29289 20.2929C5.68342 20.6834 6.31658 20.6834 6.70711 20.2929L12 15"
          fill="none" stroke-width="2" stroke-linecap="round"/>
    <path d="M10.2071 11.7929L10.7071 11.2929C10.8946 11.1054 11.149 11 11.4142 11H11.5858C11.851 11 12.1054 10.8946 12.2929 10.7071L17.2929 5.70711C17.6834 5.31658 18.3166 5.31658 18.7071 5.70711L19.2929 6.29289C19.6834 6.68342 19.6834 7.31658 19.2929 7.70711L14.2929 12.7071C14.1054 12.8946 14 13.149 14 13.4142V13.5858C14 13.851 13.8946 14.1054 13.7071 14.2929L13.2071 14.7929C12.8166 15.1834 12.1834 15.1834 11.7929 14.7929L10.2071 13.2071C9.81658 12.8166 9.81658 12.1834 10.2071 11.7929Z"
          fill="none" stroke-width="2"/>
    <path d="M2 18C2 15 6 11 6 8" fill="none" stroke-width="2" stroke-linecap="round"/>
</svg>
