<svg width="24" height="24" viewBox="0 0 24 24" fill="none" xmlns="http://www.w3.org/2000/svg">
    <path d="M4 14C10 18 14 18 20 14" fill="none" stroke-width="2" stroke-linecap="round"/>
    <path d="M17.4597 4.3201C18.4805 7.33362 20.7864 14.6407 20 17C19 20 15 21 12 21C9 21 5 20 4 17C3.7764 16.3292 3.80279 15.2584 3.97855 14C4.4209 10.833 5.80937 6.47802 6.54003 4.32101C6.80985 3.52446 7.55984 3 8.40086 3H15.5991C16.4402 3 17.1898 3.52355 17.4597 4.3201Z"
          fill="none" stroke-width="2" stroke-linecap="round"/>
    <path d="M11 21.5V21.5C11 21.7761 11.2239 22 11.5 22H12.5C12.7761 22 13 21.7761 13 21.5V21.5" fill="none"
          stroke-width="2" stroke-linecap="round"/>
    <path d="M11 14H13" stroke="var(--accent-color)" stroke-width="2" stroke-linecap="round"/>
    <path d="M11 3V3C11 2.44772 11.4477 2 12 2V2C12.5523 2 13 2.44772 13 3V3" fill="none" stroke-width="2"
          stroke-linecap="round"/>
</svg>
