<svg width="24" height="24" viewBox="0 0 24 24" fill="none" xmlns="http://www.w3.org/2000/svg">
    <path d="M15 22H8.61803C7.87465 22 7.39116 21.2177 7.72361 20.5528L8.27639 19.4472C8.60884 18.7823 8.1043 17.9957 7.41795 17.7102C5.76198 17.0212 5.09525 15.1791 5.00963 13.0002C4.99879 12.7242 4.77614 12.5 4.5 12.5H4.25C4.11193 12.5 4 12.3881 4 12.25C4 12.1119 4.11193 12 4.25 12H19.75C19.8881 12 20 12.1119 20 12.25C20 12.3881 19.8881 12.5 19.75 12.5H19.5C19.2239 12.5 19.002 12.7244 18.9813 12.9998C18.8248 15.078 17.6954 16.8498 15.9472 17.6071C15.1911 17.9346 14.7056 18.9408 15.2 19.6L15.8 20.4C16.2944 21.0592 15.824 22 15 22Z"
          fill="none" stroke-width="2" stroke-linecap="round"/>
    <path d="M6 12V4.5C6 4.22386 5.77614 4 5.5 4V4C5.22386 4 5 3.77614 5 3.5V3.5C5 3.22386 5.22386 3 5.5 3H18.5C18.7761 3 19 3.22386 19 3.5V3.5C19 3.77614 18.7761 4 18.5 4V4C18.2239 4 18 4.22386 18 4.5V12"
          fill="none" stroke-width="2" stroke-linecap="round"/>
    <path d="M10 6H11" stroke="var(--accent-color)" stroke-width="2" stroke-linecap="round"/>
</svg>
